<svg xmlns="http://www.w3.org/2000/svg" version="1.1" xmlns:xlink="http://www.w3.org/1999/xlink" xmlns:svgjs="http://svgjs.dev/svgjs" width="2000" height="813" viewBox="0 0 2000 813"><g transform="matrix(1,0,0,1,-1.2121212121212466,-0.9371345430436122)"><svg viewBox="0 0 396 161" data-background-color="#471aa0" preserveAspectRatio="xMidYMid meet" height="813" width="2000" xmlns="http://www.w3.org/2000/svg" xmlns:xlink="http://www.w3.org/1999/xlink"><g id="tight-bounds" transform="matrix(1,0,0,1,0.2400000000000091,0.18558260938502258)"><svg viewBox="0 0 395.52 160.62883478122995" height="160.62883478122995" width="395.52"><g><svg viewBox="0 0 395.52 160.62883478122995" height="160.62883478122995" width="395.52"><g transform="matrix(1,0,0,1,0,82.78943517751752)"><svg viewBox="0 0 395.52 77.83939960371242" height="77.83939960371242" width="395.52"><g id="textblocktransform"><svg viewBox="0 0 395.52 77.83939960371242" height="77.83939960371242" width="395.52" id="textblock"><g><svg viewBox="0 0 395.52 77.83939960371242" height="77.83939960371242" width="395.52"><g transform="matrix(1,0,0,1,0,0)"><svg width="395.52" viewBox="5.268779999999995 -21.86712 241.30542000000005 47.48959217033618" height="77.83939960371242" data-palette-color="#ffffff"><path d="M41.838-14.355v0l0.288 2.074-4.551 0.112c-1.012 3.629-1.927 7.03-2.747 10.203-0.826 3.171-1.578 5.956-2.255 8.354v0c-0.567 2.04-1.404 3.683-2.512 4.927-1.1 1.24-2.356 2.156-3.77 2.751-1.413 0.594-2.899 0.935-4.457 1.021-1.563 0.079-3.085-0.038-4.566-0.351v0c-2.394-0.505-4.506-1.296-6.337-2.37-1.839-1.07-3.217-2.481-4.134-4.236-0.91-1.759-1.244-3.949-1.005-6.569v0c0.163-1.58 0.447-3.408 0.851-5.482 0.405-2.081 0.859-4.312 1.363-6.693 0.503-2.381 0.978-4.795 1.426-7.242v0l-4.163-2.208 0.994-1.803c1.011 0.247 2.192 0.541 3.544 0.881 1.354 0.334 2.673 0.636 3.958 0.907v0c1.605 0.339 3.054 0.621 4.349 0.847 1.289 0.218 2.365 0.401 3.226 0.549v0l0.19 2.053-4.661 0.344c-0.639 2.543-1.216 5.031-1.73 7.464v0c-0.521 2.466-0.944 4.683-1.271 6.651-0.328 1.975-0.567 3.478-0.717 4.509v0c-0.299 2.546 0.045 4.609 1.034 6.187 0.987 1.585 2.629 2.62 4.925 3.105v0c2.433 0.514 4.494 0.305 6.182-0.626 1.689-0.931 2.964-2.713 3.827-5.345v0c0.218-0.71 0.47-1.662 0.756-2.856 0.285-1.187 0.573-2.472 0.865-3.854v0c0.368-1.742 0.753-3.677 1.155-5.807 0.394-2.124 0.725-4.225 0.993-6.3v0l-4.215-1.964 1.092-1.783c0.971 0.273 1.982 0.538 3.031 0.794 1.043 0.254 1.992 0.472 2.847 0.652v0c1.05 0.222 2.187 0.438 3.409 0.648 1.231 0.205 2.159 0.357 2.786 0.456zM51.824-1.419v0c-0.078 0.77-0.159 1.674-0.243 2.713-0.084 1.039-0.151 1.989-0.203 2.851-0.057 0.854-0.107 1.433-0.151 1.736v0l-1.3 11.361 4.747 1.964-1.01 1.733c-0.563-0.116-1.308-0.251-2.235-0.406-0.928-0.149-1.889-0.305-2.882-0.47-0.994-0.158-1.891-0.295-2.689-0.412v0c-1.029-0.15-2.143-0.295-3.342-0.436-1.205-0.142-2.309-0.269-3.31-0.38v0l-0.474-1.949 4.19-0.461c0.218-1.498 0.413-2.837 0.584-4.018 0.171-1.174 0.358-2.461 0.562-3.859v0c0.111-0.765 0.204-1.473 0.278-2.122 0.081-0.648 0.164-1.381 0.249-2.197 0.086-0.823 0.166-1.839 0.242-3.047v0l-3.314-1.048-0.389-2.189c0.763 0.077 1.79 0.176 3.08 0.296 1.289 0.12 2.627 0.214 4.011 0.281 1.379 0.059 2.579 0.079 3.599 0.059zM58.518-0.546v0c0.93 0.135 1.769 0.436 2.516 0.901 0.747 0.466 1.432 1.135 2.053 2.007v0c-0.349 0.966-0.66 1.804-0.932 2.512-0.271 0.702-0.567 1.396-0.889 2.084-0.315 0.682-0.699 1.515-1.152 2.5v0l-2.79-0.406c-0.052-1.261-0.236-2.382-0.552-3.365-0.316-0.976-0.832-1.687-1.548-2.135v0c-0.909 0.413-1.841 1.288-2.797 2.625-0.956 1.336-1.608 3.202-1.957 5.596v0l-1.529-3.173c0.541-1.821 1.305-3.458 2.291-4.911 0.993-1.452 2.115-2.569 3.368-3.35 1.253-0.788 2.559-1.083 3.918-0.885zM77.558-14.168v0c-0.119 0.933-0.224 1.894-0.314 2.883-0.09 0.983-0.179 1.958-0.268 2.928v0c-0.159 1.739-0.297 3.313-0.412 4.722-0.108 1.403-0.219 2.798-0.333 4.187-0.107 1.389-0.24 2.954-0.4 4.693v0c-0.064 0.704-0.156 1.7-0.273 2.988-0.118 1.288-0.242 2.649-0.374 4.083-0.132 1.441-0.248 2.779-0.347 4.015-0.093 1.237-0.167 2.157-0.223 2.761v0l-1.193 0.855c-0.405 0.398-0.908 0.847-1.509 1.348-0.601 0.501-1.214 1.01-1.837 1.529v0l-3.107-0.285c0.146-0.864 0.3-1.994 0.461-3.392 0.162-1.404 0.336-2.942 0.523-4.611 0.186-1.67 0.364-3.354 0.532-5.053 0.176-1.704 0.34-3.309 0.491-4.815 0.158-1.505 0.286-2.792 0.384-3.861v0c0.181-1.972 0.305-3.882 0.374-5.73 0.069-1.848 0.088-3.918 0.056-6.211v0l-3.943-1.023-0.261-2.193c0.574 0.019 1.354 0.057 2.339 0.113 0.992 0.057 2.077 0.096 3.253 0.117 1.183 0.021 2.337 0.033 3.461 0.036 1.131 0.003 2.104-0.025 2.92-0.084zM83.111 1.965v0c1.839 0.168 3.329 0.82 4.47 1.956 1.148 1.129 1.974 2.537 2.475 4.223 0.502 1.679 0.671 3.422 0.506 5.228v0c-0.174 1.905-0.7 3.702-1.578 5.389-0.885 1.693-2.095 3.032-3.631 4.015-1.543 0.99-3.4 1.386-5.572 1.187v0c-1.839-0.168-3.405-0.834-4.697-1.996-1.293-1.163-2.367-2.593-3.222-4.292v0l1.497-1.982c0.433 1.117 1.063 2.136 1.889 3.055 0.826 0.919 2.01 1.449 3.55 1.591v0c0.903 0.083 1.705-0.192 2.405-0.825 0.693-0.626 1.26-1.475 1.699-2.545 0.433-1.072 0.705-2.212 0.815-3.42v0c0.11-1.202 0.052-2.395-0.174-3.581-0.233-1.18-0.645-2.201-1.236-3.065-0.597-0.865-1.391-1.409-2.381-1.634v0c-1.051 0.071-2.058 0.762-3.021 2.073-0.964 1.311-1.557 3.188-1.781 5.631v0l-1.054-4.505c0.451-1.271 1.086-2.424 1.904-3.461 0.825-1.036 1.835-1.837 3.031-2.403 1.197-0.567 2.565-0.779 4.106-0.639zM105.973 3.291v0c1.779 0.068 3.3 0.673 4.564 1.814 1.271 1.143 1.864 2.82 1.78 5.032v0c-0.055 1.446-0.128 2.654-0.218 3.624-0.084 0.971-0.166 1.832-0.249 2.583-0.082 0.751-0.138 1.529-0.169 2.335v0c-0.036 0.939-0.001 1.604 0.105 1.995 0.105 0.391 0.424 0.597 0.957 0.617v0c0.473 0.018 1.188-0.175 2.143-0.579v0l0.815 2.253c-1.238 0.793-2.42 1.446-3.547 1.956-1.127 0.511-2.313 0.743-3.559 0.695v0c-1.039-0.04-1.93-0.484-2.671-1.332-0.735-0.855-1.068-2.172-1-3.951v0c0.062-1.639 0.197-3.255 0.404-4.848 0.214-1.586 0.344-2.999 0.392-4.238v0c0.04-1.039-0.078-1.884-0.354-2.536-0.282-0.651-0.768-1.107-1.459-1.366v0c-1.548 0.008-3.038 0.238-4.47 0.69-1.425 0.446-2.891 1.027-4.399 1.744v0l-1.227-2.208c1.966-1.34 3.948-2.408 5.946-3.206 1.998-0.798 4.07-1.156 6.216-1.075zM109.239 11.331v0l-3.177 4.062c-0.739 0.139-1.398 0.28-1.977 0.425-0.579 0.145-1.104 0.262-1.575 0.35v0c-1.148 0.19-1.949 0.453-2.401 0.789-0.446 0.337-0.686 0.941-0.72 1.814v0c-0.027 0.699 0.136 1.259 0.486 1.68 0.351 0.414 0.847 0.633 1.487 0.657v0c0.773 0.029 1.769-0.293 2.988-0.967 1.213-0.674 2.261-1.552 3.143-2.632v0l0.88 2.105c-0.559 0.653-1.353 1.446-2.382 2.381-1.03 0.935-2.245 1.753-3.646 2.453-1.408 0.7-2.931 1.019-4.57 0.957v0c-0.839-0.032-1.647-0.29-2.422-0.773-0.769-0.483-1.396-1.187-1.881-2.113-0.485-0.926-0.702-2.058-0.651-3.397v0c0.054-1.412 0.522-2.495 1.405-3.249 0.889-0.753 2.078-1.322 3.567-1.706 1.495-0.377 3.138-0.684 4.929-0.923v0c1.213-0.154 2.346-0.371 3.397-0.651 1.051-0.274 2.091-0.694 3.12-1.262zM136.745 3.334v0c1.913-0.035 3.493 0.659 4.74 2.083 1.253 1.417 1.967 3.268 2.143 5.551v0c0.044 0.599 0.062 1.546 0.052 2.84-0.009 1.294-0.007 2.697 0.008 4.21 0.008 1.513 0.024 2.907 0.047 4.18v0l3.799 0.99-0.766 1.875c-0.874-0.051-1.868-0.076-2.982-0.075-1.107 0.007-2.197 0.021-3.27 0.04v0c-1.306 0.024-2.479 0.062-3.518 0.115-1.046 0.053-2.005 0.104-2.878 0.153v0l-0.684-1.848 3.66-1.127c0.012-1.14 0.028-2.108 0.046-2.902 0.019-0.787 0.028-1.574 0.027-2.361 0.005-0.794-0.019-1.727-0.072-2.799v0c-0.071-2.046-0.469-3.532-1.192-4.458-0.724-0.927-1.775-1.528-3.154-1.803v0c-1.462 1-2.516 2.21-3.164 3.629-0.64 1.425-0.932 2.774-0.875 4.047v0l-1.911-2.185c0.205-1.917 0.753-3.638 1.645-5.161 0.899-1.53 2.06-2.735 3.484-3.615 1.431-0.887 3.036-1.346 4.815-1.379zM128.532 3.235v0c0.02 1.106 0.037 2.006 0.05 2.7 0.013 0.687 0.015 1.373 0.008 2.06-0.001 0.687-0.024 1.601-0.069 2.742v0l0.416 11.734 3.689 0.992-0.615 1.872c-1.141-0.046-2.215-0.069-3.222-0.07-1.007 0.005-2.117 0.019-3.33 0.041v0c-1.306 0.024-2.439 0.062-3.399 0.113-0.953 0.051-1.915 0.102-2.887 0.153v0l-0.844-1.845 3.759-1.129c-0.02-1.073-0.003-2.34 0.05-3.802 0.06-1.461 0.077-2.849 0.054-4.162v0c-0.018-0.973-0.043-1.786-0.076-2.439-0.025-0.653-0.078-1.342-0.158-2.067-0.08-0.719-0.197-1.663-0.352-2.834v0l-3.947-0.887-0.645-1.899c1.984-0.137 3.855-0.315 5.611-0.533 1.756-0.219 3.725-0.465 5.907-0.74zM159.339-9.323v0c2.05 2.618 4.137 5.088 6.262 7.411 2.125 2.33 4.289 4.643 6.491 6.94 2.21 2.302 4.469 4.718 6.779 7.245v0l0.122 10.55-0.508 0.044c-2.336-2.827-4.501-5.347-6.496-7.561-2.002-2.22-3.912-4.271-5.729-6.153-1.811-1.876-3.607-3.739-5.389-5.59-1.782-1.851-3.626-3.838-5.532-5.96v0c0.064-1.257 0.335-2.325 0.813-3.203 0.478-0.885 1.025-1.626 1.642-2.222 0.624-0.59 1.139-1.09 1.545-1.501zM159.339-9.323v0l-2.963 4.908c0.065 0.737 0.181 2.069 0.351 3.994 0.168 1.919 0.358 4.084 0.57 6.495v0c0.182 2.072 0.425 4.276 0.73 6.612 0.305 2.329 0.72 5.123 1.247 8.383v0l5.154 0.612-0.531 1.964c-0.909 0.013-2.002 0.065-3.279 0.157-1.27 0.098-2.456 0.195-3.558 0.292v0c-1.003 0.088-2.081 0.199-3.233 0.334-1.153 0.135-2.246 0.264-3.279 0.388v0l-0.814-1.846 4.968-1.5c-0.065-2.725-0.167-5.336-0.306-7.833-0.132-2.498-0.304-4.952-0.515-7.363v0c-0.173-1.972-0.371-3.919-0.593-5.841-0.215-1.915-0.442-3.856-0.681-5.823v0l-5.339-0.897 0.426-2.014c2.081-0.082 4.127-0.211 6.139-0.388v0c0.804-0.07 1.762-0.171 2.875-0.303 1.119-0.132 1.996-0.242 2.631-0.331zM183.118-11.409v0l0.869 1.902-4.321 1.433c0.112 3.564 0.257 6.854 0.434 9.87 0.185 3.022 0.408 6.021 0.669 8.996v0c0.164 1.873 0.347 3.767 0.548 5.683 0.202 1.923 0.414 3.952 0.635 6.088v0l-3.158 0.277-0.797-2.098c-0.05-1.716-0.112-3.303-0.186-4.762-0.081-1.458-0.198-3.058-0.351-4.798v0c-0.243-2.776-0.562-5.756-0.955-8.941-0.4-3.184-0.884-6.488-1.451-9.911v0l-4.455-0.663 0.425-2.015c1.039-0.058 2.029-0.101 2.97-0.13 0.94-0.036 1.929-0.099 2.965-0.19v0c1.069-0.094 2.14-0.204 3.213-0.332 1.066-0.127 2.048-0.263 2.946-0.409zM196.696-2.099v0c1.662-0.248 3.253-0.112 4.773 0.41 1.52 0.521 2.816 1.457 3.887 2.807 1.065 1.351 1.763 3.137 2.095 5.359v0c-0.711 0.248-1.656 0.51-2.835 0.787-1.179 0.277-2.48 0.546-3.904 0.806-1.416 0.265-2.84 0.505-4.271 0.718v0c-1.062 0.159-1.977 0.278-2.747 0.36-0.77 0.081-1.289 0.125-1.557 0.132v0l-0.358-2.394c0.363-0.054 0.92-0.137 1.672-0.249 0.745-0.111 1.58-0.253 2.504-0.425 0.925-0.172 1.821-0.356 2.688-0.553 0.874-0.198 1.603-0.391 2.188-0.58v0c-0.137-0.694-0.434-1.371-0.889-2.031-0.457-0.667-1.072-1.195-1.845-1.585-0.774-0.397-1.708-0.513-2.802-0.349v0c-0.571 0.732-0.972 1.685-1.201 2.858-0.237 1.168-0.246 2.484-0.027 3.948v0c0.446 2.987 1.398 5.093 2.854 6.317 1.457 1.225 3.099 1.701 4.925 1.429v0c1.859-0.278 3.719-1.233 5.578-2.866v0l1.441 2.131c-1.231 1.505-2.619 2.663-4.163 3.473-1.545 0.804-3.115 1.325-4.711 1.563v0c-1.859 0.278-3.654 0.131-5.384-0.44-1.731-0.577-3.209-1.604-4.433-3.079-1.219-1.483-2.01-3.438-2.372-5.864v0c-0.366-2.453-0.168-4.579 0.594-6.378 0.77-1.793 1.898-3.226 3.383-4.296 1.485-1.071 3.124-1.74 4.917-2.009zM211.72 16.481v0c0.022-1.301 0.044-2.391 0.066-3.27 0.023-0.873 0.005-1.817-0.054-2.831v0l2.475-0.474 1.525 3.709c0.501 0.277 1.065 0.458 1.693 0.542 0.633 0.082 1.248 0.066 1.843-0.048v0c0.818-0.157 1.514-0.494 2.088-1.011 0.566-0.516 0.771-1.186 0.612-2.011v0c-0.133-0.694-0.497-1.215-1.093-1.562-0.596-0.347-1.323-0.619-2.182-0.814-0.859-0.195-1.767-0.381-2.724-0.558-0.957-0.176-1.882-0.451-2.774-0.823-0.894-0.379-1.672-0.915-2.335-1.609-0.662-0.694-1.11-1.651-1.343-2.869v0c-0.322-1.683-0.164-3.088 0.475-4.214 0.638-1.134 1.584-2.041 2.839-2.723 1.253-0.688 2.623-1.174 4.109-1.459v0c1.152-0.221 2.38-0.317 3.682-0.288 1.307 0.021 2.519 0.179 3.634 0.475v0c-0.046 1.21-0.089 2.281-0.128 3.212-0.046 0.932-0.068 1.842-0.068 2.731v0l-2.584 0.434-1.292-3.235c-0.741-0.679-1.789-0.889-3.145-0.629v0c-0.72 0.138-1.356 0.433-1.907 0.884-0.546 0.444-0.747 1.046-0.601 1.806v0c0.138 0.72 0.515 1.252 1.13 1.595 0.609 0.345 1.368 0.603 2.277 0.776 0.901 0.167 1.866 0.349 2.894 0.545 1.029 0.197 2.019 0.496 2.972 0.897 0.945 0.396 1.766 0.982 2.464 1.758 0.691 0.771 1.166 1.833 1.426 3.189v0c0.302 1.578 0.115 2.921-0.563 4.027-0.678 1.101-1.685 1.993-3.02 2.676-1.342 0.685-2.838 1.185-4.488 1.501v0c-1.251 0.24-2.543 0.351-3.876 0.336-1.34-0.015-2.682-0.236-4.027-0.665zM233.724-15.142v0c0.201 1.158 0.462 2.5 0.783 4.028 0.323 1.533 0.666 3.11 1.03 4.729 0.357 1.621 0.717 3.167 1.079 4.636 0.355 1.464 0.668 2.736 0.94 3.817 0.264 1.075 0.461 1.819 0.592 2.234v0c0.348 1.199 0.76 2 1.237 2.402 0.472 0.41 1.101 0.524 1.886 0.341v0c0.558-0.13 1.123-0.364 1.695-0.703 0.576-0.346 1.299-0.946 2.169-1.798v0l1.439 1.728c-0.658 0.879-1.374 1.771-2.149 2.677-0.77 0.898-1.652 1.695-2.646 2.393-0.995 0.697-2.161 1.201-3.498 1.512v0c-0.753 0.175-1.526 0.194-2.318 0.057-0.793-0.144-1.501-0.551-2.122-1.22-0.62-0.663-1.082-1.648-1.385-2.953v0c0.008 0.032-0.051-0.265-0.178-0.893-0.132-0.626-0.308-1.455-0.527-2.485-0.221-1.037-0.448-2.131-0.682-3.281-0.235-1.157-0.464-2.243-0.686-3.259-0.216-1.017-0.392-1.846-0.528-2.485-0.129-0.641-0.185-0.929-0.17-0.864v0c-0.117-0.356-0.394-0.62-0.831-0.792-0.437-0.172-0.925-0.298-1.464-0.378-0.534-0.088-1.018-0.167-1.452-0.237-0.427-0.072-0.68-0.201-0.758-0.389v0c0.755-0.313 1.394-0.598 1.916-0.856 0.527-0.266 1.099-0.557 1.717-0.872v0c0.494-1.114 0.932-2.154 1.317-3.12 0.376-0.971 0.808-2.115 1.295-3.433v0c0.292-0.068 0.666-0.155 1.12-0.261 0.461-0.107 0.854-0.199 1.179-0.275zM225.18-6.325l16.809-3.964 0.832 3.574-17.046 2.942z" opacity="1" transform="matrix(1,0,0,1,0,0)" fill="#000000" class="wordmark-text-0" data-fill-palette-color="primary" id="text-0"></path></svg></g></svg></g></svg></g></svg></g><g transform="matrix(1,0,0,1,164.2379102364031,0)"><svg viewBox="0 0 67.04417952719378 77.83939960371242" height="77.83939960371242" width="67.04417952719378"><g><svg xmlns="http://www.w3.org/2000/svg" xmlns:xlink="http://www.w3.org/1999/xlink" version="1.1" x="0" y="0" viewBox="20.783 16.078 58.43499999999999 67.844" enable-background="new 0 0 100 100" xml:space="preserve" height="77.83939960371242" width="67.04417952719378" class="icon-icon-0" data-fill-palette-color="accent" id="icon-0"><path d="M20.783 83.922h27.719V41.828c-0.008-0.052-0.008-0.104 0-0.156V23.703l-27.719-7.625V83.922zM37.721 28.516c-0.004-0.243 0.167-0.454 0.406-0.5 0.021-0.001 0.042-0.001 0.063 0 0.01 0 0.021 0 0.031 0h5.625c0.276 0 0.5 0.224 0.5 0.5v5.625c0 0.276-0.224 0.5-0.5 0.5h-5.625c-0.276 0-0.5-0.224-0.5-0.5V28.516zM37.721 42.797c-0.011-0.225 0.13-0.43 0.344-0.5 0.021-0.001 0.042-0.001 0.063 0 0.031-0.003 0.063-0.003 0.094 0h5.625c0.276 0 0.5 0.224 0.5 0.5v5.625c0 0.276-0.224 0.5-0.5 0.5h-5.625c-0.276 0-0.5-0.224-0.5-0.5V42.797zM37.721 56.984c-0.011-0.225 0.13-0.43 0.344-0.5 0.021-0.001 0.042-0.001 0.063 0 0.031-0.003 0.063-0.003 0.094 0h5.625c0.276 0 0.5 0.224 0.5 0.5v5.625c0 0.276-0.224 0.5-0.5 0.5h-5.625c-0.276 0-0.5-0.224-0.5-0.5V56.984zM37.721 71.141c-0.004-0.243 0.167-0.454 0.406-0.5 0.031-0.003 0.063-0.003 0.094 0h5.625c0.276 0 0.5 0.224 0.5 0.5v5.625c0 0.276-0.224 0.5-0.5 0.5h-5.625c-0.276 0-0.5-0.224-0.5-0.5V71.141zM25.658 28.516c-0.004-0.243 0.167-0.454 0.406-0.5 0.021-0.001 0.042-0.001 0.063 0 0.01 0 0.021 0 0.031 0h5.625c0.276 0 0.5 0.224 0.5 0.5v5.625c0 0.276-0.224 0.5-0.5 0.5h-5.625c-0.276 0-0.5-0.224-0.5-0.5V28.516zM25.658 42.797c-0.011-0.225 0.13-0.43 0.344-0.5 0.021-0.001 0.042-0.001 0.063 0 0.031-0.003 0.063-0.003 0.094 0h5.625c0.276 0 0.5 0.224 0.5 0.5v5.625c0 0.276-0.224 0.5-0.5 0.5h-5.625c-0.276 0-0.5-0.224-0.5-0.5V42.797zM25.658 56.984c-0.011-0.225 0.13-0.43 0.344-0.5 0.021-0.001 0.042-0.001 0.063 0 0.031-0.003 0.063-0.003 0.094 0h5.625c0.276 0 0.5 0.224 0.5 0.5v5.625c0 0.276-0.224 0.5-0.5 0.5h-5.625c-0.276 0-0.5-0.224-0.5-0.5V56.984zM25.658 71.141c-0.004-0.243 0.167-0.454 0.406-0.5 0.031-0.003 0.063-0.003 0.094 0h5.625c0.276 0 0.5 0.224 0.5 0.5v5.625c0 0.276-0.224 0.5-0.5 0.5h-5.625c-0.276 0-0.5-0.224-0.5-0.5V71.141z" fill="#000000" data-fill-palette-color="accent"></path><polygon points="51.499,42.406 51.499,42.406 51.499,42.406 " fill="#000000" data-fill-palette-color="accent"></polygon><path d="M51.499 42.406V83.91h5.995V70.381c0-4.758 3.558-8.704 7.957-8.704 4.406 0 7.957 3.947 7.957 8.704V83.91h5.81V50.219l-17.383-4.9L51.499 42.406z" fill="#000000" data-fill-palette-color="accent"></path></svg></g></svg></g><g></g></svg></g><defs></defs></svg><rect width="395.52" height="160.62883478122995" fill="none" stroke="none" visibility="hidden"></rect></g></svg></g></svg>